# xmcd CD database file
#
# Track frame offsets:
#	150
#	17567
#	34727
#	50480
#	68597
#	91475
#	115105
#	129885
#	146320
#	160252
#	184380
#	205772
#	226025
#	247670
#	264927
#	281667
#	297027
#
# Disc length: 4173 seconds
#
# Revision: 2
# Processed by: cddbd v1.5.2PL0 Copyright (c) Steve Scherf et al.
# Submitted via: CDex 1.81
#
DISCID=dc104b11
DTITLE=Desert Wind - Kali Ma, Dances of Transformation
DYEAR=1992
DGENRE=New Age
TTITLE0=Wind Dancer
TTITLE1=Kali Ma
TTITLE2=Rhea Kronia
TTITLE3=The Vision
TTITLE4=Exploding Star
TTITLE5=Twilight Mist
TTITLE6=Scorpio Rising
TTITLE7=Moon Goddess
TTITLE8=Moon Dance
TTITLE9=Sunset Shadows
TTITLE10=Into the Night
TTITLE11=Temple Gardens
TTITLE12=Tribal Fusion
TTITLE13=Tequila Sunrise
TTITLE14=Habena
TTITLE15=Chiftitelli (Isis)
TTITLE16=Mastom
EXTD=YEAR: 1992
EXTT0=
EXTT1=
EXTT2=
EXTT3=
EXTT4=
EXTT5=
EXTT6=
EXTT7=
EXTT8=
EXTT9=
EXTT10=
EXTT11=
EXTT12=
EXTT13=
EXTT14=
EXTT15=
EXTT16=
PLAYORDER=
